<svg id="Group_97" data-name="Group 97" xmlns="http://www.w3.org/2000/svg" width="221" height="221" viewBox="0 0 221 221">
  <circle id="Ellipse_7" data-name="Ellipse 7" cx="110.5" cy="110.5" r="110.5" fill="#e1d8ca"/>
  <g id="Layer_2" data-name="Layer 2" transform="translate(15.672 1.897)">
    <path id="Path_7908" data-name="Path 7908" d="M62.959,168.2a8.109,8.109,0,0,1,4.48.861c.081.047.168.094.249.135,5.886,2.529,7.3,11.84,2.624,16.105a3.576,3.576,0,0,0,2.4,6.216h29.9v23.4c-7.985-3.048-17.895.074-21.595,8.5-5.18,10.091,1.594,23.041,12.89,24.427a16.447,16.447,0,0,0,8.705-1.11v23.324H78.923a16.66,16.66,0,0,0,1.043-9.869c-2.072-10.871-14.82-16.906-24.541-11.571-8.14,3.855-11.154,13.6-8.14,21.467H24.021V240.333a3.574,3.574,0,0,0-6.162-2.476,10.172,10.172,0,0,1-8.645,2.906H9.066c-6.122-.713-10.293-8.739-7.434-14.175a2.105,2.105,0,0,0,.121-.249c2.5-5.887,11.8-7.313,16.045-2.644a3.576,3.576,0,0,0,6.223-2.395V191.567H53.366a3.571,3.571,0,0,0,2.852-5.738c-1.413-1.857-3.444-6.3-3.047-8.248q.04-.242.061-.484c.309-4.749,5.046-8.524,9.728-8.894Z" transform="translate(-0.712 -52.875)" fill="#687152" stroke="#241a1a" stroke-linecap="round" stroke-linejoin="round" stroke-width="1.45"/>
    <path id="Path_7909" data-name="Path 7909" d="M190.418,168.176a8.22,8.22,0,0,1,4.48.848V169c.081.047.168.087.249.128,5.886,2.529,7.292,11.84,2.617,16.105a3.576,3.576,0,0,0,2.415,6.216h29.573v23.431c-7.985-3.047-17.915.074-21.6,8.5-5.18,10.091,1.588,23.041,12.89,24.427a17.02,17.02,0,0,0,8.712-1.123v23.351H206.368a16.61,16.61,0,0,0,1.049-9.869c-2.072-10.871-14.82-16.906-24.535-11.571-8.147,3.855-11.154,13.609-8.154,21.48H151.466V240.306a3.573,3.573,0,0,0-6.149-2.469,10.166,10.166,0,0,1-8.638,2.906h-.155c-6.122-.713-10.3-8.739-7.434-14.175a2.117,2.117,0,0,0,.121-.249c2.509-5.886,11.8-7.313,16.045-2.644a3.576,3.576,0,0,0,6.216-2.395V191.533h29.351a3.572,3.572,0,0,0,2.839-5.732c-1.413-1.857-3.444-6.3-3.048-8.248a4.012,4.012,0,0,0,.074-.484c.316-4.75,5.046-8.524,9.728-8.894h-.007Z" transform="translate(-40.109 -52.869)" fill="#bc5836" stroke="#241a1a" stroke-linecap="round" stroke-linejoin="round" stroke-width="1.45"/>
    <path id="Path_7910" data-name="Path 7910" d="M200.063.73h29.661V79.245H206.568c.141-.357.276-.713.39-1.09a17.038,17.038,0,0,0-1.964-14.289h-.013a16.243,16.243,0,0,0-.975-1.366h-.014c-.357-.444-.727-.875-1.123-1.285h-.013a16.98,16.98,0,0,0-1.251-1.157h-.013c-.431-.363-.881-.7-1.345-1.023h-.013c-.464-.323-.942-.619-1.433-.895h-.047a15.517,15.517,0,0,0-3.135-1.332c-.545-.168-1.1-.309-1.662-.431-.7-.141-1.2-.2-1.5-.249a12.23,12.23,0,0,0-1.917-.114h-.013c-.861,0-1.171.074-.962.074h-.276c-.552.074-1.1.121-1.635.215a15.172,15.172,0,0,0-1.715.37h-.04a16.283,16.283,0,0,0-3.155,1.245h-.013c-.5.262-.982.552-1.453.861h-.027a16.681,16.681,0,0,0-1.366.975h-.027a18,18,0,0,0-3.5,3.754,16.6,16.6,0,0,0-1.628,3h-.013a16.69,16.69,0,0,0-1.258,4.965,17.621,17.621,0,0,0-.06,2.92,17.347,17.347,0,0,0,.585,3.364,14.154,14.154,0,0,0,.538,1.554H151.357V49.564a3.577,3.577,0,0,0-6.129-2.5A10.031,10.031,0,1,1,138.064,30h.013a9.972,9.972,0,0,1,7.151,3,3.576,3.576,0,0,0,6.129-2.5V.757h48.7V.73Z" transform="translate(-40.067 -0.73)" fill="#8a976d" stroke="#241a1a" stroke-linecap="round" stroke-linejoin="round" stroke-width="1.45"/>
  </g>
</svg>
