<svg xmlns="http://www.w3.org/2000/svg" width="259.464" height="221" viewBox="0 0 259.464 221">
  <g id="Group_97" data-name="Group 97" transform="translate(4.826)">
    <circle id="Ellipse_7" data-name="Ellipse 7" cx="110.5" cy="110.5" r="110.5" transform="translate(14.5)" fill="#e1d8ca"/>
    <g id="Group_102" data-name="Group 102" transform="translate(-97.418 -415.187)">
      <path id="Path_7912" data-name="Path 7912" d="M438.877,446.242v17.466c-.992.062-1.986.137-2.984.183a58.112,58.112,0,0,0-23.069,5.763c-17.747,8.667-29.135,22.593-34.007,41.746a58.932,58.932,0,0,0-1.574,17.639,62.1,62.1,0,0,0,44.3,55.986,59.992,59.992,0,0,0,31.1.965c18.456-4.34,32.1-15.032,41.133-31.661a1.263,1.263,0,0,1,1.295-.8c5.813.034,11.626.027,17.44.031h.95a78.551,78.551,0,0,1-24.68,34c-16.529,13.147-35.416,19.065-56.438,17.262a79.363,79.363,0,0,1-72.692-83.943c1.531-23.17,11.483-42.222,29.379-56.983a77.536,77.536,0,0,1,49.85-17.66Z" transform="translate(-226.427 0)" fill="#8a976d" stroke="#241a1a" stroke-width="2"/>
      <path id="Path_7913" data-name="Path 7913" d="M1173.1,721.545H1157.83c.069-1.082.071-2.131.213-3.16a23.723,23.723,0,0,1,9.672-16.692,22.588,22.588,0,0,1,11.583-4.3,23.289,23.289,0,0,1,24.661,18.768,20.462,20.462,0,0,1-.843,12.454,30.468,30.468,0,0,1-6.322,9.111,110.612,110.612,0,0,1-11.238,9.573c-1.719,1.36-3.45,2.7-5.176,4.054-.114.089-.242.161-.364.241.028.062.058.124.086.186h24.374v15.351h-46.5c-.04-.056-.092-.095-.092-.133.028-3.175-.035-6.353.118-9.521a16.227,16.227,0,0,1,3.065-8.045,40.552,40.552,0,0,1,8.8-9.3c3.816-3.07,7.73-6.022,11.551-9.087a42.8,42.8,0,0,0,6.337-6.18,5.8,5.8,0,0,0,1.209-5.38,8.77,8.77,0,0,0-3.767-5.7c-4.548-2.865-10.358-.316-11.666,5.115-.2.832-.281,1.692-.433,2.64Z" transform="translate(-906.778 -213.969)" fill="#bc5836" stroke="#241a1a" stroke-width="2"/>
      <path id="Path_7914" data-name="Path 7914" d="M601.682,735.868v15.691c-17.658.167-31.919-6.509-42.26-20.838a47.313,47.313,0,0,1-2.51-51.656c9.977-16.888,25.164-24.827,44.76-24.845v15.732c-10.691-.389-19.773,3.141-26.945,11.094a32.651,32.651,0,0,0-3.259,39.452,32.941,32.941,0,0,0,12.96,11.781,33.6,33.6,0,0,0,17.256,3.584Z" transform="translate(-389.151 -177.249)" fill="#8a976d" stroke="#241a1a" stroke-width="2"/>
      <path id="Path_7915" data-name="Path 7915" d="M1526.177,758.381c-.015-.327-.034-.566-.034-.807,0-4.58-.012-9.162.007-13.743a2.884,2.884,0,0,1,.306-1.262q10.742-21,21.509-41.978c.179-.349.331-.593.8-.591,5.419.019,10.837.015,16.256.018.115,0,.23.021.48.044l-22.079,42.9c.352.03.559.061.767.061,3.818,0,7.635-.009,11.452.019.616,0,.792-.179.789-.791-.022-3.744,0-7.488,0-11.23v-.946h15.27V769.4h-15.265v-.789c0-3.1-.03-6.206,0-9.31.007-.7-.186-.921-.908-.919q-14.223.027-28.447,0h-.9Z" transform="translate(-1220.649 -216.263)" fill="#bc5836" stroke="#241a1a" stroke-width="2"/>
      <path id="Path_7916" data-name="Path 7916" d="M126.4,733.352c-1.636,0-3.232,0-4.827,0l-12.337-.024c-1.057,0-1.057-.006-1.057-1.092q-.007-26.006-.012-52.013a.923.923,0,0,0-1.041-1.045c-2.61-.006-5.22-.026-7.831,0-.556,0-.8-.115-.93-.715C96.9,671.676,95.4,664.9,93.913,658.126c-.052-.236-.083-.476-.133-.766H126.4v75.992Z" transform="translate(0 -179.925)" fill="#8a976d" stroke="#241a1a" stroke-width="2"/>
      <path id="Path_7917" data-name="Path 7917" d="M986.18,657.21h14.7v21.775c-.186.015-.4.046-.609.046-2.881,0-5.763,0-8.644.01-.454,0-.668-.077-.782-.6-1.388-6.415-2.814-12.822-4.23-19.231C986.47,658.564,986.334,657.919,986.18,657.21Z" transform="translate(-760.499 -179.797)" fill="#bc5836" stroke="#241a1a" stroke-width="2"/>
    </g>
  </g>
</svg>
