<svg id="Group_97" data-name="Group 97" xmlns="http://www.w3.org/2000/svg" width="221" height="221" viewBox="0 0 221 221">
  <circle id="Ellipse_7" data-name="Ellipse 7" cx="110.5" cy="110.5" r="110.5" fill="#e1d8ca"/>
  <g id="PRINT" transform="translate(3.66 9.143)">
    <g id="Group_89" data-name="Group 89">
      <path id="Path_7812" data-name="Path 7812" d="M210.491,231.593A195.959,195.959,0,0,1,219.27,296.2a11.171,11.171,0,0,1-5.845-3.674,156.91,156.91,0,0,0-5.439-57.38,3.729,3.729,0,0,1-.066-2.785c.459-.835,2.284-1.682,2.571-.769Z" transform="translate(-84.243 -93.735)" fill="#687152" stroke="#241a1a" stroke-linecap="round" stroke-linejoin="round" stroke-width="1.45"/>
      <path id="Path_7813" data-name="Path 7813" d="M201.984,165.544c4.622,1.932,9.93-.328,14-3.256a25.541,25.541,0,0,1,5.272-3.358,26.107,26.107,0,0,1,6.083-1.187c4.4-.62,8.869-2.087,12.006-5.23,3.382-3.388,4.873-8.35,8.368-11.624,2.487-2.326,5.821-3.626,8.195-6.071,3.131-3.227,4.115-7.9,6.065-11.952a23.1,23.1,0,0,1,9.745-10.437,18.5,18.5,0,0,1,14.063-1.521,32.992,32.992,0,0,0-24.25-6.191c-3.895.525-7.723,1.718-11.648,1.646-4.127-.072-8.248-1.539-12.322-.841-6.447,1.115-10.861,7.252-17.016,9.477-3.853,1.4-8.123,1.133-12.131.292-3.429-.722-7-1.861-10.354-.853a14.165,14.165,0,0,0-6.131,4.413,41.959,41.959,0,0,0-9.352,37.77,7.516,7.516,0,0,0,6.024,6.549c4.234,1.372,9.28.65,13.389,2.368Z" transform="translate(-73.625 -42.561)" fill="#8a976d" stroke="#241a1a" stroke-linecap="round" stroke-linejoin="round" stroke-width="1.45"/>
      <path id="Path_7814" data-name="Path 7814" d="M.72,193.619a17.008,17.008,0,0,1,12.1-10.24c2.553-.537,5.23-.483,7.712-1.282s4.646-2.433,7.091-3.37c7.67-2.934,16.365,1.39,24.429-.185,2.594-.507,5.04-1.61,7.628-2.135,7.431-1.5,14.97,1.932,21.3,6.1A88.1,88.1,0,0,1,101,200.627c1.6,1.98,3.328,3.71,4.473,5.988-2.529.65-5.177-.2-7.789-.233-10.139-.107-17.308,11.767-27.447,11.91-5.439.078-10.222-3.28-15.143-5.588a41.751,41.751,0,0,0-10.306-3.274c-3.483-.626-7.038-.805-10.5-1.533a33.82,33.82,0,0,1-13.306-6.042c-3.048-2.29-5.7-5.1-8.922-7.133a13.393,13.393,0,0,0-11.344-1.1Z" transform="translate(-0.72 -71.476)" fill="#8a976d" stroke="#241a1a" stroke-linecap="round" stroke-linejoin="round" stroke-width="1.45"/>
      <path id="Path_7815" data-name="Path 7815" d="M7.436,2.98A23.651,23.651,0,0,1,27.809,4.167c3.775,2.123,6.978,5.3,11.051,6.781,5.421,1.974,12,.793,16.586,4.288,2.242,1.706,3.632,4.294,5.666,6.244,3.167,3.036,7.6,4.282,11.421,6.453,7.479,4.252,12.393,11.988,15.417,20.039S92.4,64.577,94.7,72.862a120.82,120.82,0,0,0,9.531,23.976c.471.889,1.044,2.2.376,2.952q-3.543-4.554-7.079-9.113c-4.121-5.3-8.618-10.884-15.006-12.966-8.26-2.7-18.4.936-25.335-4.294-2.38-1.8-3.99-4.413-6.131-6.483-3.2-3.107-7.425-4.867-11.356-6.984s-7.831-4.9-9.495-9.036c-1.36-3.382-1.038-7.276-2.487-10.622-1.909-4.39-6.68-7.4-7.443-12.125a24.688,24.688,0,0,1,.191-5.582A21.7,21.7,0,0,0,16.3,8.36C14.163,5.473,11,2.629,7.43,2.963Z" transform="translate(-3.428 -0.919)" fill="#8a976d" stroke="#241a1a" stroke-linecap="round" stroke-linejoin="round" stroke-width="1.45"/>
      <path id="Path_7816" data-name="Path 7816" d="M165.8,94.782a18.874,18.874,0,0,1,8.081-13.622c6.113-4.145,14.54-4.586,19.634-9.942,2.511-2.642,3.865-6.167,6.089-9.047,2.153-2.8,5.141-5.022,6.584-8.248,1.747-3.906.871-8.439,1.408-12.692.531-4.223,2.463-8.165,3.042-12.381.614-4.491-.334-9.071.173-13.574A21.354,21.354,0,0,1,219.151.741a19.894,19.894,0,0,0-14.4,5.564c-2.421,2.231-4.27,5.052-6.847,7.1-2.368,1.879-5.23,3.018-7.813,4.592a26.163,26.163,0,0,0-7.622,7.079c-1.712,2.386-2.63,5.529-5.034,7.211-2.093,1.461-5.4,2.839-6.853,4.264a25.055,25.055,0,0,0-4.056,5.392c-4.443,7.682-4.217,15.775-4.139,24.65s1.771,19.461,3.417,28.18Z" transform="translate(-65.957 -0.713)" fill="#8a976d" stroke="#241a1a" stroke-linecap="round" stroke-linejoin="round" stroke-width="1.45"/>
      <g id="Group_66" data-name="Group 66" transform="translate(5.397 3.231)">
        <g id="Group_62" data-name="Group 62" transform="translate(107.109 63.1)">
          <path id="Path_7817" data-name="Path 7817" d="M278.308,111.93c-13.073,0-25.723,4.7-37.848,9.584a171.649,171.649,0,0,0-31.973,17.075c-6.489,4.318-14.648,9.68-19.127,14.171" transform="translate(-189.36 -111.93)" fill="none" stroke="#241a1a" stroke-linecap="round" stroke-linejoin="round" stroke-width="0.97"/>
          <path id="Path_7818" data-name="Path 7818" d="M292.775,112.66c-2.714,1.378-4.664,3.853-6.525,6.256" transform="translate(-228.464 -112.225)" fill="none" stroke="#241a1a" stroke-linecap="round" stroke-linejoin="round" stroke-width="0.97"/>
          <path id="Path_7819" data-name="Path 7819" d="M263.772,115.42a35.757,35.757,0,0,0-8.672,12.262" transform="translate(-215.892 -113.339)" fill="none" stroke="#241a1a" stroke-linecap="round" stroke-linejoin="round" stroke-width="0.97"/>
          <path id="Path_7820" data-name="Path 7820" d="M228.715,130.6a34.361,34.361,0,0,0-8.755,16.073" transform="translate(-201.71 -119.465)" fill="none" stroke="#241a1a" stroke-linecap="round" stroke-linejoin="round" stroke-width="0.97"/>
          <path id="Path_7821" data-name="Path 7821" d="M200.65,137.57a36.831,36.831,0,0,0-9.56,23.069" transform="translate(-190.058 -122.278)" fill="none" stroke="#241a1a" stroke-linecap="round" stroke-linejoin="round" stroke-width="0.97"/>
          <path id="Path_7822" data-name="Path 7822" d="M247.025,171.937a78.427,78.427,0,0,1-28.836-8.069,11.624,11.624,0,0,1-3.549-2.427" transform="translate(-199.563 -131.912)" fill="none" stroke="#241a1a" stroke-linecap="round" stroke-linejoin="round" stroke-width="0.97"/>
          <path id="Path_7823" data-name="Path 7823" d="M270.485,150.017c-8.23-.757-18.214-2.893-25.115-7.437" transform="translate(-211.965 -124.3)" fill="none" stroke="#241a1a" stroke-linecap="round" stroke-linejoin="round" stroke-width="0.97"/>
          <path id="Path_7824" data-name="Path 7824" d="M294.054,131.442a25.466,25.466,0,0,1-15.984-4.652" transform="translate(-225.163 -117.927)" fill="none" stroke="#241a1a" stroke-linecap="round" stroke-linejoin="round" stroke-width="0.97"/>
        </g>
        <g id="Group_63" data-name="Group 63" transform="translate(0 107.866)">
          <path id="Path_7825" data-name="Path 7825" d="M107.6,214.831a206.656,206.656,0,0,0-21.4-8.189c-3-.924-6.03-1.736-9.071-2.511A180.235,180.235,0,0,0,9.77,199.366" transform="translate(-9.77 -191.475)" fill="none" stroke="#241a1a" stroke-linecap="round" stroke-linejoin="round" stroke-width="0.97"/>
          <path id="Path_7826" data-name="Path 7826" d="M140.122,206.018A55.8,55.8,0,0,0,116.63,187.35" transform="translate(-52.898 -187.135)" fill="none" stroke="#241a1a" stroke-linecap="round" stroke-linejoin="round" stroke-width="0.97"/>
          <path id="Path_7827" data-name="Path 7827" d="M133.256,216.06a32.974,32.974,0,0,1-18.626,11.7" transform="translate(-52.091 -198.722)" fill="none" stroke="#241a1a" stroke-linecap="round" stroke-linejoin="round" stroke-width="0.97"/>
          <path id="Path_7828" data-name="Path 7828" d="M105.876,199A60.415,60.415,0,0,0,88.3,186.99" transform="translate(-41.464 -186.99)" fill="none" stroke="#241a1a" stroke-linecap="round" stroke-linejoin="round" stroke-width="0.97"/>
          <path id="Path_7829" data-name="Path 7829" d="M98.177,205.47a57.725,57.725,0,0,1-8.356,7.294,32.885,32.885,0,0,1-8.481,3.972" transform="translate(-38.655 -194.448)" fill="none" stroke="#241a1a" stroke-linecap="round" stroke-linejoin="round" stroke-width="0.97"/>
          <path id="Path_7830" data-name="Path 7830" d="M72.474,195.235A42.321,42.321,0,0,0,60.88,187.72" transform="translate(-30.398 -187.285)" fill="none" stroke="#241a1a" stroke-linecap="round" stroke-linejoin="round" stroke-width="0.97"/>
          <path id="Path_7831" data-name="Path 7831" d="M61.105,199.89c-3.9,3.793-9.065,5.94-14.105,8" transform="translate(-24.796 -192.196)" fill="none" stroke="#241a1a" stroke-linecap="round" stroke-linejoin="round" stroke-width="0.97"/>
          <path id="Path_7832" data-name="Path 7832" d="M41.4,195.864a16.829,16.829,0,0,0-7.163-3.614" transform="translate(-19.646 -189.113)" fill="none" stroke="#241a1a" stroke-linecap="round" stroke-linejoin="round" stroke-width="0.97"/>
        </g>
        <g id="Group_64" data-name="Group 64" transform="translate(5.66)">
          <path id="Path_7833" data-name="Path 7833" d="M107.7,98.77c-11-18.656-23.045-36.8-37.514-52.925S38.721,15.631,19.26,6.13" transform="translate(-19.26 -6.13)" fill="none" stroke="#241a1a" stroke-width="0.97"/>
          <path id="Path_7834" data-name="Path 7834" d="M128.53,65.88a46.255,46.255,0,0,1,4.8,27.775" transform="translate(-63.361 -30.245)" fill="none" stroke="#241a1a" stroke-linecap="round" stroke-linejoin="round" stroke-width="0.97"/>
          <path id="Path_7835" data-name="Path 7835" d="M106.23,49.78c2.576,6.411,5.2,13.157,4.437,20.027" transform="translate(-54.36 -23.747)" fill="none" stroke="#241a1a" stroke-linecap="round" stroke-linejoin="round" stroke-width="0.97"/>
          <path id="Path_7836" data-name="Path 7836" d="M81.32,30.77a24.519,24.519,0,0,1,2.94,13.735" transform="translate(-44.307 -16.075)" fill="none" stroke="#241a1a" stroke-linecap="round" stroke-linejoin="round" stroke-width="0.97"/>
          <path id="Path_7837" data-name="Path 7837" d="M54.27,18.57a12.851,12.851,0,0,1,2.565,6.841" transform="translate(-33.39 -11.151)" fill="none" stroke="#241a1a" stroke-linecap="round" stroke-linejoin="round" stroke-width="0.97"/>
          <path id="Path_7838" data-name="Path 7838" d="M94.021,89.12c-11.588,3.233-24.1,3.877-35.611.37" transform="translate(-35.061 -39.624)" fill="none" stroke="#241a1a" stroke-linecap="round" stroke-linejoin="round" stroke-width="0.97"/>
          <path id="Path_7839" data-name="Path 7839" d="M73.319,61.907c-10.151,1.175-20.671,2.314-30.4-.817" transform="translate(-28.809 -28.311)" fill="none" stroke="#241a1a" stroke-linecap="round" stroke-linejoin="round" stroke-width="0.97"/>
          <path id="Path_7840" data-name="Path 7840" d="M54.12,35.7A35.108,35.108,0,0,1,37.2,35" transform="translate(-26.5 -17.782)" fill="none" stroke="#241a1a" stroke-linecap="round" stroke-linejoin="round" stroke-width="0.97"/>
          <path id="Path_7841" data-name="Path 7841" d="M121.584,117c-11.23,2.493-26,.274-25.425.394" transform="translate(-50.289 -50.876)" fill="none" stroke="#241a1a" stroke-linecap="round" stroke-linejoin="round" stroke-width="0.97"/>
        </g>
        <g id="Group_65" data-name="Group 65" transform="translate(94.364 3.054)">
          <path id="Path_7842" data-name="Path 7842" d="M212.554,11.25c-10.1,9.25-17.516,21-24.8,32.594-2.052,3.262-4.1,6.531-5.9,9.942-1.64,3.119-3.06,6.346-4.455,9.584-4.467,10.389-8.7,21.125-9.411,32.409" transform="translate(-167.99 -11.25)" fill="none" stroke="#241a1a" stroke-linecap="round" stroke-linejoin="round" stroke-width="0.97"/>
          <path id="Path_7843" data-name="Path 7843" d="M229.613,34.99a28.269,28.269,0,0,1-13.1,4.312" transform="translate(-187.572 -20.831)" fill="none" stroke="#241a1a" stroke-linecap="round" stroke-linejoin="round" stroke-width="0.97"/>
          <path id="Path_7844" data-name="Path 7844" d="M218.94,59.33A32.562,32.562,0,0,1,200.07,64.2" transform="translate(-180.937 -30.655)" fill="none" stroke="#241a1a" stroke-linecap="round" stroke-linejoin="round" stroke-width="0.97"/>
          <path id="Path_7845" data-name="Path 7845" d="M211.388,84.07c-6.954,4.479-15.686,4.837-23.958,5.058" transform="translate(-175.836 -40.64)" fill="none" stroke="#241a1a" stroke-linecap="round" stroke-linejoin="round" stroke-width="0.97"/>
          <path id="Path_7846" data-name="Path 7846" d="M198.925,111.53a35.157,35.157,0,0,1-21.065,1.551" transform="translate(-171.973 -51.722)" fill="none" stroke="#241a1a" stroke-linecap="round" stroke-linejoin="round" stroke-width="0.97"/>
          <path id="Path_7847" data-name="Path 7847" d="M212.629,33.92a19.578,19.578,0,0,0-.471,8.254" transform="translate(-185.719 -20.399)" fill="none" stroke="#241a1a" stroke-linecap="round" stroke-linejoin="round" stroke-width="0.97"/>
          <path id="Path_7848" data-name="Path 7848" d="M193.806,55.6a28.493,28.493,0,0,0,.167,12.089" transform="translate(-178.18 -29.149)" fill="none" stroke="#241a1a" stroke-linecap="round" stroke-linejoin="round" stroke-width="0.97"/>
          <path id="Path_7849" data-name="Path 7849" d="M180.971,69.2a26.918,26.918,0,0,0,1.33,17.069" transform="translate(-172.902 -34.638)" fill="none" stroke="#241a1a" stroke-linecap="round" stroke-linejoin="round" stroke-width="0.97"/>
          <path id="Path_7850" data-name="Path 7850" d="M169.582,91.22c-1.425,6.584-.322,13.908,2.129,20.188" transform="translate(-168.378 -43.525)" fill="none" stroke="#241a1a" stroke-linecap="round" stroke-linejoin="round" stroke-width="0.97"/>
        </g>
      </g>
      <g id="Group_68" data-name="Group 68" transform="translate(126.116 142.725)">
        <path id="Path_7851" data-name="Path 7851" d="M212.18,240.02a121.734,121.734,0,0,1,4.67,21.673" transform="translate(-212.18 -240.02)" fill="none" stroke="#241a1a" stroke-linecap="round" stroke-linejoin="round" stroke-width="0.48"/>
        <g id="Group_67" data-name="Group 67" transform="translate(4.545 34.598)">
          <path id="Path_7852" data-name="Path 7852" d="M220.217,298.03a88.973,88.973,0,0,1-.417,22.1" transform="translate(-219.8 -298.03)" fill="none" stroke="#241a1a" stroke-linecap="round" stroke-linejoin="round" stroke-width="0.48"/>
          <path id="Path_7853" data-name="Path 7853" d="M222.907,307.86a107.543,107.543,0,0,1-.757,17.081" transform="translate(-220.748 -301.997)" fill="none" stroke="#241a1a" stroke-linecap="round" stroke-linejoin="round" stroke-width="0.48"/>
        </g>
      </g>
      <g id="Group_82" data-name="Group 82" transform="translate(93.445 92.082)">
        <g id="Group_71" data-name="Group 71">
          <path id="Path_7854" data-name="Path 7854" d="M201.323,230.523a8.724,8.724,0,0,1-.1,5.034,8.436,8.436,0,0,1-1.843,3.584,6.524,6.524,0,0,1-7.061,1.306,9.1,9.1,0,0,1-3.31-13.765c3.978-4.58,10.646-1.175,12.316,3.847Z" transform="translate(-169.391 -183.124)" fill="#bc5836" stroke="#241a1a" stroke-linecap="round" stroke-linejoin="round" stroke-width="1.45"/>
          <path id="Path_7855" data-name="Path 7855" d="M172.545,223.956a9.489,9.489,0,0,1-5.654-3.376,7.538,7.538,0,0,1-1.419-6.346,7.275,7.275,0,0,1,5.171-5.075,8.226,8.226,0,0,1,7.139,1.646c2.225,1.819,4.151,5.344,3.131,8.224-1.33,3.769-4.384,5.72-8.368,4.932Z" transform="translate(-160.575 -176.826)" fill="#bc5836" stroke="#241a1a" stroke-linecap="round" stroke-linejoin="round" stroke-width="1.45"/>
          <path id="Path_7856" data-name="Path 7856" d="M218.52,215.412a8.558,8.558,0,0,1-2.362,5.541,8.066,8.066,0,0,1-9.447,1,10.2,10.2,0,0,1-4.825-8.5,9.427,9.427,0,0,1,1.4-5.421,6.843,6.843,0,0,1,4.586-3.071c6.131-.9,11.028,4.479,10.646,10.443Z" transform="translate(-175.352 -175.188)" fill="#bc5836" stroke="#241a1a" stroke-linecap="round" stroke-linejoin="round" stroke-width="1.45"/>
          <path id="Path_7857" data-name="Path 7857" d="M200.5,207.618c.6,3.423-1.229,7.324-4.515,8.445a7.348,7.348,0,0,1-5.851-.65,10.77,10.77,0,0,1-4.115-4.342,10.914,10.914,0,0,1-1.36-6.662,7.536,7.536,0,0,1,3.68-5.559c2.982-1.61,5.093-.3,7.24,1.646,2.278,2.07,4.366,3.906,4.926,7.127Z" transform="translate(-168.365 -172.469)" fill="#bc5836" stroke="#241a1a" stroke-linecap="round" stroke-linejoin="round" stroke-width="1.45"/>
          <path id="Path_7858" data-name="Path 7858" d="M184.995,165.134a5.427,5.427,0,0,1-4.014,4.151,7.771,7.771,0,0,1-4.217-.62c-2.356-.895-4.694-2.314-5.761-4.592a6.413,6.413,0,0,1,1.539-7.342c5.511-4.819,13.9,2.01,12.453,8.409Z" transform="translate(-162.666 -155.106)" fill="#bc5836" stroke="#241a1a" stroke-linecap="round" stroke-linejoin="round" stroke-width="1.45"/>
          <g id="Group_69" data-name="Group 69" transform="translate(9.674 1.744)">
            <path id="Path_7859" data-name="Path 7859" d="M179.292,158.168a4.079,4.079,0,0,0-3.119.5,5.331,5.331,0,0,0-2.04,1.789,3.075,3.075,0,0,0-.358,2.63" transform="translate(-173.62 -158.031)" fill="none" stroke="#241a1a" stroke-linecap="round" stroke-linejoin="round" stroke-width="0.48"/>
            <path id="Path_7860" data-name="Path 7860" d="M178.6,160.35a3.856,3.856,0,0,0-2.01.841,2.445,2.445,0,0,0-.883,1.944" transform="translate(-174.461 -158.967)" fill="none" stroke="#241a1a" stroke-linecap="round" stroke-linejoin="round" stroke-width="0.48"/>
          </g>
          <path id="Path_7861" data-name="Path 7861" d="M213.334,194.945a7.346,7.346,0,0,1-4.8,2.308c-4.288.543-9.059-1.658-10.6-5.7a10.456,10.456,0,0,1-.6-4.068,7.159,7.159,0,0,1,1.068-3.883c5.511-7.974,21.3,3.71,14.922,11.338Z" transform="translate(-173.518 -165.528)" fill="#bc5836" stroke="#241a1a" stroke-linecap="round" stroke-linejoin="round" stroke-width="1.45"/>
          <path id="Path_7862" data-name="Path 7862" d="M196.342,182.348a9.188,9.188,0,0,1-4.706,5.887,7.193,7.193,0,0,1-7.354-.632,8.981,8.981,0,0,1-3.018-6.632,11.762,11.762,0,0,1,2.38-8.087,8.361,8.361,0,0,1,7.628-3.107c5.851.984,6.322,7.938,5.063,12.572Z" transform="translate(-167.022 -160.988)" fill="#bc5836" stroke="#241a1a" stroke-linecap="round" stroke-linejoin="round" stroke-width="1.45"/>
          <g id="Group_70" data-name="Group 70" transform="translate(15.714 16.713)">
            <path id="Path_7863" data-name="Path 7863" d="M190.852,191.005a6.444,6.444,0,0,1-3.942-.459,5.373,5.373,0,0,1-3.054-3.614,9.058,9.058,0,0,1,.256-3.722" transform="translate(-183.747 -183.162)" fill="none" stroke="#241a1a" stroke-linecap="round" stroke-linejoin="round" stroke-width="0.48"/>
            <path id="Path_7864" data-name="Path 7864" d="M190.355,190.462a4.413,4.413,0,0,1-4.9-4.992" transform="translate(-184.42 -184.074)" fill="none" stroke="#241a1a" stroke-linecap="round" stroke-linejoin="round" stroke-width="0.48"/>
            <path id="Path_7865" data-name="Path 7865" d="M189.837,187.6a2.674,2.674,0,0,1-2.117-1.682,6.228,6.228,0,0,1-.352-2.791" transform="translate(-185.201 -183.13)" fill="none" stroke="#241a1a" stroke-linecap="round" stroke-linejoin="round" stroke-width="0.48"/>
          </g>
          <path id="Path_7866" data-name="Path 7866" d="M174.249,169.066a8.679,8.679,0,0,1,1.091,5.91,7.356,7.356,0,0,1-4.008,5.684,9.914,9.914,0,0,1-3.757.751c-3.549.131-7.6-1.02-9.262-3.936a7,7,0,0,1-.793-2.32,8.418,8.418,0,0,1,2.988-8c3.847-3.024,11.063-2.439,13.735,1.914Z" transform="translate(-157.4 -159.206)" fill="#bc5836" stroke="#241a1a" stroke-linecap="round" stroke-linejoin="round" stroke-width="1.45"/>
          <path id="Path_7867" data-name="Path 7867" d="M177.4,197.671a5.5,5.5,0,0,1-3.042,3.692,10.338,10.338,0,0,1-4.825.9,12.007,12.007,0,0,1-7.378-2.392,6.556,6.556,0,0,1,3.692-11.958c4.7-.4,12.686,4.1,11.552,9.763Z" transform="translate(-158.186 -168.337)" fill="#bc5836" stroke="#241a1a" stroke-linecap="round" stroke-linejoin="round" stroke-width="1.45"/>
        </g>
        <g id="Group_81" data-name="Group 81" transform="translate(1.857 9.592)">
          <g id="Group_72" data-name="Group 72" transform="translate(17.258 33.84)">
            <path id="Path_7868" data-name="Path 7868" d="M191.728,227.93a7.374,7.374,0,0,0-2.278,5.332,8.854,8.854,0,0,0,2,5.5" transform="translate(-189.45 -227.93)" fill="none" stroke="#241a1a" stroke-linecap="round" stroke-linejoin="round" stroke-width="0.48"/>
            <path id="Path_7869" data-name="Path 7869" d="M193.923,229.07a1.762,1.762,0,0,0-.734.519,6.066,6.066,0,0,0-.722,7.4" transform="translate(-190.29 -228.39)" fill="none" stroke="#241a1a" stroke-linecap="round" stroke-linejoin="round" stroke-width="0.48"/>
            <path id="Path_7870" data-name="Path 7870" d="M201.333,247.09a2.82,2.82,0,0,1-2.123.811,8.216,8.216,0,0,1-2.29-.453" transform="translate(-192.465 -235.663)" fill="none" stroke="#241a1a" stroke-linecap="round" stroke-linejoin="round" stroke-width="0.48"/>
          </g>
          <g id="Group_73" data-name="Group 73" transform="translate(32.091 22.079)">
            <path id="Path_7871" data-name="Path 7871" d="M223.151,215.331a9.48,9.48,0,0,0-1.258-4.2,7.123,7.123,0,0,0-3.233-2.916" transform="translate(-216.072 -208.21)" fill="none" stroke="#241a1a" stroke-linecap="round" stroke-linejoin="round" stroke-width="0.48"/>
            <path id="Path_7872" data-name="Path 7872" d="M220.108,214.325a10.723,10.723,0,0,0-1.491-3.274,5.868,5.868,0,0,0-2.8-2.2" transform="translate(-214.925 -208.468)" fill="none" stroke="#241a1a" stroke-linecap="round" stroke-linejoin="round" stroke-width="0.48"/>
            <path id="Path_7873" data-name="Path 7873" d="M217.171,213.5a5.925,5.925,0,0,0-2.851-3.561" transform="translate(-214.32 -208.908)" fill="none" stroke="#241a1a" stroke-linecap="round" stroke-linejoin="round" stroke-width="0.48"/>
          </g>
          <g id="Group_74" data-name="Group 74">
            <path id="Path_7874" data-name="Path 7874" d="M168.3,176.951a1.586,1.586,0,0,1-2.809.179,1.2,1.2,0,0,1-.173-.841,1.137,1.137,0,0,1,.99-.835,1.762,1.762,0,0,1,1.276.417" transform="translate(-162.444 -172.907)" fill="none" stroke="#241a1a" stroke-linecap="round" stroke-linejoin="round" stroke-width="0.48"/>
            <path id="Path_7875" data-name="Path 7875" d="M162.533,171.19a5.814,5.814,0,0,0-1.354,1.455,4.728,4.728,0,0,0-.507,1.443,6.985,6.985,0,0,0,.072,3.274,4.826,4.826,0,0,0,1.849,2.66" transform="translate(-160.513 -171.19)" fill="none" stroke="#241a1a" stroke-linecap="round" stroke-linejoin="round" stroke-width="0.48"/>
          </g>
          <g id="Group_75" data-name="Group 75" transform="translate(2.187 16.711)">
            <path id="Path_7876" data-name="Path 7876" d="M175.81,205.523a8.175,8.175,0,0,1-11.63-2.433" transform="translate(-164.18 -200.776)" fill="none" stroke="#241a1a" stroke-linecap="round" stroke-linejoin="round" stroke-width="0.48"/>
            <path id="Path_7877" data-name="Path 7877" d="M179.111,201.73A6.174,6.174,0,0,1,171,204.736" transform="translate(-166.932 -200.227)" fill="none" stroke="#241a1a" stroke-linecap="round" stroke-linejoin="round" stroke-width="0.48"/>
            <path id="Path_7878" data-name="Path 7878" d="M179.5,199.21a3.19,3.19,0,0,1-1.473,2.4,5.749,5.749,0,0,1-2.755.871" transform="translate(-168.656 -199.21)" fill="none" stroke="#241a1a" stroke-linecap="round" stroke-linejoin="round" stroke-width="0.48"/>
          </g>
          <g id="Group_77" data-name="Group 77" transform="translate(27.397 7.044)">
            <path id="Path_7879" data-name="Path 7879" d="M219,196.76a1.631,1.631,0,0,1-.048,1.348c-.245.394-.912.513-1.157.113a.77.77,0,0,1-.1-.364,1.313,1.313,0,0,1,.543-1.091" transform="translate(-210.99 -188.553)" fill="none" stroke="#241a1a" stroke-linecap="round" stroke-linejoin="round" stroke-width="0.48"/>
            <g id="Group_76" data-name="Group 76">
              <path id="Path_7880" data-name="Path 7880" d="M215.494,187.187A10.607,10.607,0,0,0,208.6,183" transform="translate(-207.318 -183)" fill="none" stroke="#241a1a" stroke-linecap="round" stroke-linejoin="round" stroke-width="0.48"/>
              <path id="Path_7881" data-name="Path 7881" d="M213.662,188.213a8.67,8.67,0,0,0-4.992-2.833" transform="translate(-207.346 -183.961)" fill="none" stroke="#241a1a" stroke-linecap="round" stroke-linejoin="round" stroke-width="0.48"/>
              <path id="Path_7882" data-name="Path 7882" d="M211.6,189a8.611,8.611,0,0,0-3.614-1.8" transform="translate(-207.072 -184.695)" fill="none" stroke="#241a1a" stroke-linecap="round" stroke-linejoin="round" stroke-width="0.48"/>
              <path id="Path_7883" data-name="Path 7883" d="M210.487,190.233a9.783,9.783,0,0,0-1.5-.853" transform="translate(-207.475 -185.575)" fill="none" stroke="#241a1a" stroke-linecap="round" stroke-linejoin="round" stroke-width="0.48"/>
              <path id="Path_7884" data-name="Path 7884" d="M208.1,200.151a2.318,2.318,0,0,1-1.646-.5" transform="translate(-206.45 -189.72)" fill="none" stroke="#241a1a" stroke-linecap="round" stroke-linejoin="round" stroke-width="0.48"/>
            </g>
          </g>
          <g id="Group_78" data-name="Group 78" transform="translate(16.262 24.065)">
            <path id="Path_7885" data-name="Path 7885" d="M192.987,217.743a3.614,3.614,0,0,1-1.211-.716,13.213,13.213,0,0,1-4-5.487" transform="translate(-187.78 -211.54)" fill="none" stroke="#241a1a" stroke-linecap="round" stroke-linejoin="round" stroke-width="0.48"/>
            <path id="Path_7886" data-name="Path 7886" d="M192.7,215.637a19.136,19.136,0,0,1-2.01-2.427" transform="translate(-188.954 -212.214)" fill="none" stroke="#241a1a" stroke-linecap="round" stroke-linejoin="round" stroke-width="0.48"/>
          </g>
          <g id="Group_80" data-name="Group 80" transform="translate(8.694 30.393)">
            <path id="Path_7887" data-name="Path 7887" d="M179.53,222.15a.75.75,0,0,1,.417,1.109,1.2,1.2,0,0,1-1.235.459.54.54,0,0,1-.274-.113c-.28-.262.089-.716.048-1.1" transform="translate(-176.399 -222.15)" fill="none" stroke="#241a1a" stroke-linecap="round" stroke-linejoin="round" stroke-width="0.48"/>
            <g id="Group_79" data-name="Group 79" transform="translate(0 1.103)">
              <path id="Path_7888" data-name="Path 7888" d="M185.105,224a3.555,3.555,0,0,1-2.415,2.624" transform="translate(-178.157 -224)" fill="none" stroke="#241a1a" stroke-linecap="round" stroke-linejoin="round" stroke-width="0.48"/>
              <path id="Path_7889" data-name="Path 7889" d="M182.825,226.83a5.846,5.846,0,0,1-7.735,2.034" transform="translate(-175.09 -225.142)" fill="none" stroke="#241a1a" stroke-linecap="round" stroke-linejoin="round" stroke-width="0.48"/>
            </g>
          </g>
        </g>
      </g>
      <g id="Group_83" data-name="Group 83" transform="translate(20.583 23.182)">
        <path id="Path_7890" data-name="Path 7890" d="M80.121,210.33a29.553,29.553,0,0,1-7.825,5.147,8.56,8.56,0,0,1-4.908,1.115,1.946,1.946,0,0,1-1.408-.787,1.551,1.551,0,0,1,.054-1.527A3.072,3.072,0,0,1,67.2,213.2c1.276-.734,2.773-.99,4.085-1.646a32.087,32.087,0,0,0,3.632-2.547,5.663,5.663,0,0,1,4.145-1.217" transform="translate(-47.57 -107.445)" fill="none" stroke="#241a1a" stroke-linecap="round" stroke-linejoin="round" stroke-width="0.48"/>
        <path id="Path_7891" data-name="Path 7891" d="M269.954,158.085a3.582,3.582,0,0,1-1.67,3.68,8.266,8.266,0,0,1-5.326,1.336,25.284,25.284,0,0,1-6.256-1.33,21.124,21.124,0,0,1-6.865-3.734,8.217,8.217,0,0,1-2.058-2.618,2.915,2.915,0,0,1,.113-2.833c.769-1.1,2.326-1.282,3.662-1.151,3.638.358,6.877,2.2,10.342,3.209,2.326.674,7.181.5,8.063,3.435Z" transform="translate(-120.889 -84.71)" fill="none" stroke="#241a1a" stroke-linecap="round" stroke-linejoin="round" stroke-width="0.48"/>
        <path id="Path_7892" data-name="Path 7892" d="M41.04,50.018a3.736,3.736,0,0,1-2.326-.746,8.011,8.011,0,0,1-3.417-5.3c-.233-1.413.083-5.016,2.314-4.294,1.622.525,2.642,3.525,3.316,4.867.722,1.425,3.537,5.195.113,5.481Z" transform="translate(-35.232 -39.582)" fill="none" stroke="#241a1a" stroke-linecap="round" stroke-linejoin="round" stroke-width="0.48"/>
        <path id="Path_7893" data-name="Path 7893" d="M180.357,63.64a12.7,12.7,0,0,0-4.718,4.2c-1.27,1.706-2.362,3.555-3.763,5.159-.316.358-.757.74-1.217.59a1.1,1.1,0,0,1-.59-.62,4.991,4.991,0,0,1,.018-3.948,14.788,14.788,0,0,1,2.123-3.447c1.229-1.64,2.576-3.364,4.509-4.038a3.139,3.139,0,0,1,2.827.221" transform="translate(-89.49 -48.349)" fill="none" stroke="#241a1a" stroke-linecap="round" stroke-linejoin="round" stroke-width="0.48"/>
      </g>
      <g id="Group_84" data-name="Group 84" transform="translate(123.486 99.002)">
        <path id="Path_7894" data-name="Path 7894" d="M230.9,176.61a65.5,65.5,0,0,1-23.129-9.9" transform="translate(-207.77 -166.71)" fill="none" stroke="#241a1a" stroke-linecap="round" stroke-linejoin="round" stroke-width="0.48"/>
        <path id="Path_7895" data-name="Path 7895" d="M221.712,176.708a42.077,42.077,0,0,1-12.972-6.268" transform="translate(-208.161 -168.215)" fill="none" stroke="#241a1a" stroke-linecap="round" stroke-linejoin="round" stroke-width="0.48"/>
        <path id="Path_7896" data-name="Path 7896" d="M215.69,177.7a21.993,21.993,0,0,1-7.92-4.539" transform="translate(-207.77 -169.313)" fill="none" stroke="#241a1a" stroke-linecap="round" stroke-linejoin="round" stroke-width="0.48"/>
      </g>
      <g id="Group_87" data-name="Group 87" transform="translate(51.887 119.417)">
        <path id="Path_7897" data-name="Path 7897" d="M158.087,212.786a66.288,66.288,0,0,0-7.747-8.606" transform="translate(-112.993 -202.248)" fill="none" stroke="#241a1a" stroke-linecap="round" stroke-linejoin="round" stroke-width="0.48"/>
        <g id="Group_85" data-name="Group 85" transform="translate(0 13.962)">
          <path id="Path_7898" data-name="Path 7898" d="M96.3,224.35a41.046,41.046,0,0,1-8.576,3.781" transform="translate(-87.72 -224.35)" fill="none" stroke="#241a1a" stroke-linecap="round" stroke-linejoin="round" stroke-width="0.48"/>
          <path id="Path_7899" data-name="Path 7899" d="M98.5,226.4c-1.2.734-2.356,1.569-3.614,2.219a8.024,8.024,0,0,1-4.067,1.02" transform="translate(-88.971 -225.177)" fill="none" stroke="#241a1a" stroke-linecap="round" stroke-linejoin="round" stroke-width="0.48"/>
          <path id="Path_7900" data-name="Path 7900" d="M102.212,228.3a14.052,14.052,0,0,1-5.982,3.3" transform="translate(-91.155 -225.944)" fill="none" stroke="#241a1a" stroke-linecap="round" stroke-linejoin="round" stroke-width="0.48"/>
        </g>
        <g id="Group_86" data-name="Group 86" transform="translate(20.791)">
          <path id="Path_7901" data-name="Path 7901" d="M130.935,206.391c-1.652-2.308-4.085-3.906-6.465-5.451" transform="translate(-123.343 -200.94)" fill="none" stroke="#241a1a" stroke-linecap="round" stroke-linejoin="round" stroke-width="0.48"/>
          <path id="Path_7902" data-name="Path 7902" d="M127.381,206.291a30.06,30.06,0,0,0-4.8-3.161" transform="translate(-122.58 -201.824)" fill="none" stroke="#241a1a" stroke-linecap="round" stroke-linejoin="round" stroke-width="0.48"/>
        </g>
      </g>
      <g id="Group_88" data-name="Group 88" transform="translate(108.874 60.927)">
        <path id="Path_7903" data-name="Path 7903" d="M201.036,102.87a35.727,35.727,0,0,1-11.326.274" transform="translate(-185.869 -102.87)" fill="none" stroke="#241a1a" stroke-linecap="round" stroke-linejoin="round" stroke-width="0.48"/>
        <path id="Path_7904" data-name="Path 7904" d="M201.531,105.278a38.538,38.538,0,0,1-14.081-.018" transform="translate(-184.957 -103.835)" fill="none" stroke="#241a1a" stroke-linecap="round" stroke-linejoin="round" stroke-width="0.48"/>
        <path id="Path_7905" data-name="Path 7905" d="M200.723,107.834A31.436,31.436,0,0,1,187,107.5" transform="translate(-184.775 -104.739)" fill="none" stroke="#241a1a" stroke-linecap="round" stroke-linejoin="round" stroke-width="0.48"/>
        <path id="Path_7906" data-name="Path 7906" d="M191.387,119.82a22.514,22.514,0,0,1-8.117-.28" transform="translate(-183.27 -109.598)" fill="none" stroke="#241a1a" stroke-linecap="round" stroke-linejoin="round" stroke-width="0.48"/>
      </g>
      <path id="Path_7907" data-name="Path 7907" d="M88.684,101.117a24.289,24.289,0,0,1-13.574-.567" transform="translate(-30.743 -41.006)" fill="none" stroke="#241a1a" stroke-linecap="round" stroke-linejoin="round" stroke-width="0.48"/>
    </g>
  </g>
</svg>
